<?xml version="1.0" encoding="UTF-8"?>
<svg width="14px" height="14px" viewBox="0 0 14 14" version="1.1" xmlns="http://www.w3.org/2000/svg" xmlns:xlink="http://www.w3.org/1999/xlink">
    <!-- Generator: Sketch 60 (88103) - https://sketch.com -->
    <title>Path</title>
    <desc>Created with Sketch.</desc>
    <g id="Symbols" stroke="none" stroke-width="1" fill="none" fill-rule="evenodd">
        <g id="Redo" transform="translate(0.000000, -4.000000)" fill="#344050" fill-rule="nonzero">
            <g id="Group-Copy">
                <path d="M13.6666669,4 L12.8969173,4 C12.709723,4 12.5592231,4.15660352 12.5636675,4.34678892 L12.6288619,7.12894885 C11.3909738,5.23725622 9.27189176,3.99238586 6.86686544,4 C3.07833996,4.01208747 -0.00590816461,7.16154964 0,11.0111808 C0.0059529393,14.8720459 3.08792329,18 6.88889321,18 C8.66461435,18 10.2833911,17.3173028 11.504946,16.196146 C11.6469737,16.0657993 11.6536681,15.8416019 11.5183348,15.7040858 L10.9700574,15.1469651 C10.845113,15.0200055 10.6435854,15.0119047 10.5116966,15.1313845 C9.54964159,16.0029123 8.28069792,16.5322588 6.88889321,16.5322588 C3.87995059,16.5322588 1.44445207,14.0579293 1.44445207,11 C1.44445207,7.9425291 3.87950614,5.46774805 6.88889321,5.46774805 C9.0984752,5.46774805 10.9983629,6.80231998 11.8520846,8.7222384 L8.34128121,8.63730698 C8.15414244,8.63279086 8,8.78568998 8,8.97593182 L8,9.75806854 C8,9.94512086 8.14925355,10.096778 8.33333677,10.096778 L13.6666669,10.096778 C13.8507501,10.096778 14,9.94512086 14,9.75806854 L14,4.33871634 C14,4.15166401 13.8507501,4 13.6666669,4 Z" id="Path"></path>
            </g>
        </g>
    </g>
</svg>