<?xml version="1.0" encoding="UTF-8"?>
<svg width="40px" height="40px" viewBox="0 0 40 40" version="1.1" xmlns="http://www.w3.org/2000/svg" xmlns:xlink="http://www.w3.org/1999/xlink">
    <!-- Generator: Sketch 60 (88103) - https://sketch.com -->
    <title>Group</title>
    <desc>Created with Sketch.</desc>
    <g id="Symbols" stroke="none" stroke-width="1" fill="none" fill-rule="evenodd">
        <g id="Start-Over" transform="translate(1.000000, 1.000000)">
            <g id="Group">
                <circle id="Oval" stroke="#0067EF" fill="#2A2E3D" cx="19" cy="19" r="19"></circle>
                <g id="redo" transform="translate(10.000000, 10.000000)" fill="#0067EF" fill-rule="nonzero">
                    <path d="M17.5714288,0 L16.5817509,0 C16.3410724,0 16.1475726,0.201347389 16.1532868,0.445871463 L16.2371082,4.02293424 C14.6455378,1.590758 11.9210037,-0.00978960486 8.828827,0 C3.95786567,0.015541028 -0.00759621165,4.06484954 0,9.01437535 C0.0076537791,13.9783447 3.97018709,18 8.85714841,18 C11.1402184,18 13.2215029,17.1222464 14.7920734,15.6807592 C14.9746804,15.5131706 14.9832875,15.2249167 14.8092877,15.0481103 L14.1043595,14.3318123 C13.9437167,14.1685785 13.6846098,14.1581632 13.5150384,14.31178 C12.2781106,15.4323158 10.6466116,16.1129041 8.85714841,16.1129041 C4.9885079,16.1129041 1.85715266,12.9316234 1.85715266,9 C1.85715266,5.06896598 4.98793647,1.88710463 8.85714841,1.88710463 C11.6980395,1.88710463 14.1407523,3.60298283 15.2383945,6.07144937 L10.7245044,5.96225184 C10.4838974,5.95644539 10.285719,6.15302997 10.285719,6.39762663 L10.285719,7.40323097 C10.285719,7.64372682 10.4776117,7.83871463 10.7142901,7.83871463 L17.5714288,7.83871463 C17.8081073,7.83871463 18,7.64372682 18,7.40323097 L18,0.435492436 C18,0.194996586 17.8081073,0 17.5714288,0 Z" id="Path"></path>
                </g>
            </g>
        </g>
    </g>
</svg>